<?xml version="1.0" encoding="utf-8"?>
<!-- Generator: Adobe Illustrator 27.5.0, SVG Export Plug-In . SVG Version: 6.00 Build 0)  -->
<svg version="1.1" xmlns="http://www.w3.org/2000/svg" xmlns:xlink="http://www.w3.org/1999/xlink" x="0px" y="0px"
	 viewBox="0 0 500 500" style="enable-background:new 0 0 500 500;" xml:space="preserve">
<g id="BACKGROUND">
</g>
<g id="OBJECTS">
	<g>
		<g>
			<g>
				<g style="opacity:0.2;">
					<path style="fill:#003154;" d="M231.713,462.168c-1.731,0-3.484-0.148-5.248-0.455l-0.855-0.149
						c-16.088-2.811-26.992-17.8-24.895-33.84c-8.629,13.647-26.559,18.215-40.724,10.127l-0.917-0.528
						c-14.1-8.179-19.164-25.96-11.717-40.273c-12.767,9.867-31.166,8.035-41.715-4.393l-0.635-0.751
						c-10.512-12.495-9.228-30.982,2.685-41.919c-15.401,4.945-32.104-3.087-37.761-18.406l-0.336-0.915
						c-5.601-15.352,1.955-32.296,16.918-38.477c-16.149-0.635-29.083-13.891-29.158-30.213l-0.003-0.992l0-0.479
						c0.058-16.29,12.928-29.54,29.033-30.24c-14.969-6.157-22.552-23.083-16.98-38.443l0.327-0.898
						c5.613-15.31,22.255-23.381,37.649-18.516c-11.894-10.891-13.234-29.322-2.799-41.838l0.654-0.78
						c10.513-12.471,28.921-14.36,41.723-4.515c-7.507-14.307-2.482-32.127,11.618-40.341l0.848-0.492
						c14.148-8.164,32.134-3.654,40.81,10.005c-2.157-16.018,8.672-31.042,24.736-33.928l1.036-0.183
						c16.058-2.775,31.354,7.605,34.832,23.358c3.45-15.763,18.719-26.178,34.799-23.42l0.991,0.173
						c16.075,2.838,26.951,17.834,24.837,33.862c8.659-13.66,26.627-18.192,40.782-10.056l0.84,0.485
						c14.111,8.185,19.172,25.985,11.702,40.304c12.788-9.863,31.204-7.999,41.733,4.461l0.633,0.753
						c10.478,12.509,9.164,30.977-2.75,41.89c15.396-4.925,32.089,3.113,37.736,18.431l0.359,0.982
						c5.551,15.352-2.031,32.254-16.98,38.408c16.145,0.65,29.063,13.913,29.128,30.231l0.001,0.785c0,0.085,0,0.17-0.001,0.255
						c-0.057,16.282-12.926,29.563-29.046,30.258c14.983,6.116,22.613,23.018,17.086,38.392l-0.35,0.966
						c-5.603,15.307-22.228,23.384-37.62,18.543c11.904,10.879,13.262,29.307,2.84,41.834l-0.631,0.753
						c-10.494,12.503-28.915,14.424-41.74,4.585c7.535,14.322,2.501,32.17-11.622,40.383l-0.808,0.468
						c-14.141,8.175-32.124,3.679-40.812-9.964c2.177,16.049-8.683,31.102-24.777,33.969l-0.946,0.167
						c-16.056,2.805-31.372-7.564-34.87-23.318C258.285,452.359,245.781,462.168,231.713,462.168z M230.802,401.26
						c1.736,0,3.495,0.149,5.264,0.459l0.824,0.142c12.469,2.173,21.829,11.66,24.437,23.285
						c2.571-11.676,11.947-21.219,24.456-23.401l0.731-0.129c12.462-2.221,24.503,3.499,30.927,13.537
						c-1.579-11.829,3.94-23.986,14.914-30.329l0.668-0.388c10.954-6.369,24.242-5.121,33.722,2.118
						c-5.538-10.584-4.507-23.909,3.65-33.626l0.462-0.552c8.108-9.743,21.026-13.127,32.416-9.572
						c-8.787-8.068-12.339-20.932-7.985-32.83l0.231-0.636c4.29-11.935,15.284-19.533,27.214-20.077
						c-11.053-4.537-18.836-15.399-18.836-28.09l0.001-0.187l-0.001-0.546c-0.05-12.702,7.705-23.614,18.756-28.194
						c-11.946-0.508-22.966-8.088-27.284-20.029l-0.228-0.624c-4.388-11.902-0.852-24.788,7.937-32.875
						c-11.394,3.616-24.342,0.28-32.492-9.45l-0.464-0.551c-8.187-9.688-9.265-23.008-3.764-33.609
						c-9.475,7.275-22.778,8.548-33.753,2.182l-0.631-0.364c-10.977-6.309-16.525-18.432-14.994-30.253
						c-6.406,10.057-18.444,15.804-30.915,13.601l-0.688-0.119c-12.516-2.145-21.922-11.662-24.526-23.332
						c-2.584,11.679-11.977,21.214-24.494,23.378l-0.642,0.113c-12.487,2.242-24.562-3.489-30.989-13.558
						c1.566,11.828-3.963,23.976-14.939,30.308l-0.628,0.364c-10.965,6.389-24.278,5.137-33.767-2.126
						c5.533,10.601,4.478,23.939-3.707,33.647l-0.439,0.523c-8.119,9.738-21.04,13.109-32.432,9.538
						c8.776,8.073,12.318,20.933,7.958,32.826l-0.256,0.703c-4.314,11.892-15.283,19.45-27.179,19.995
						c11.054,4.574,18.812,15.483,18.767,28.186l0.002,0.977c0.058,12.698-7.682,23.611-18.723,28.201
						c11.925,0.496,22.94,8.039,27.285,19.948l0.253,0.69c4.392,11.894,0.869,24.776-7.907,32.868
						c11.377-3.625,24.317-0.312,32.48,9.389l0.465,0.551c8.216,9.679,9.316,23.012,3.822,33.629
						c9.476-7.29,22.793-8.571,33.777-2.2l0.555,0.32c11.012,6.287,16.596,18.422,15.074,30.264
						C210.67,406.726,220.301,401.26,230.802,401.26z"/>
				</g>
				<g>
					<g>
						<path style="fill:#FF5E43;" d="M220.713,451.168c-1.731,0-3.484-0.148-5.248-0.455l-0.855-0.149
							c-16.088-2.811-26.992-17.8-24.895-33.84c-8.629,13.647-26.559,18.215-40.724,10.127l-0.917-0.528
							c-14.1-8.179-19.164-25.96-11.717-40.273c-12.767,9.867-31.166,8.035-41.715-4.393l-0.635-0.751
							c-10.512-12.495-9.228-30.982,2.685-41.919c-15.401,4.945-32.104-3.087-37.761-18.406l-0.336-0.915
							c-5.601-15.352,1.955-32.296,16.918-38.477c-16.149-0.635-29.083-13.891-29.158-30.213l-0.003-0.992l0-0.479
							c0.058-16.29,12.928-29.54,29.033-30.24c-14.969-6.157-22.552-23.083-16.98-38.443l0.327-0.898
							c5.613-15.31,22.255-23.381,37.649-18.516c-11.894-10.891-13.234-29.322-2.799-41.838l0.654-0.78
							c10.513-12.471,28.921-14.36,41.723-4.516c-7.507-14.307-2.482-32.127,11.618-40.341l0.848-0.492
							c14.148-8.164,32.134-3.654,40.81,10.005c-2.157-16.018,8.672-31.042,24.736-33.928l1.036-0.183
							c16.058-2.775,31.354,7.605,34.832,23.358c3.45-15.763,18.719-26.178,34.799-23.42l0.991,0.173
							c16.075,2.838,26.951,17.834,24.837,33.862c8.659-13.66,26.627-18.192,40.782-10.056l0.84,0.485
							c14.111,8.185,19.172,25.985,11.702,40.304c12.788-9.863,31.204-7.999,41.733,4.461l0.633,0.752
							c10.478,12.509,9.164,30.977-2.75,41.89c15.396-4.925,32.089,3.113,37.736,18.431l0.359,0.982
							c5.551,15.352-2.031,32.254-16.98,38.408c16.145,0.65,29.063,13.913,29.128,30.231l0.001,0.785c0,0.085,0,0.17-0.001,0.255
							c-0.057,16.282-12.926,29.563-29.046,30.258c14.983,6.116,22.613,23.018,17.086,38.392l-0.35,0.966
							c-5.603,15.307-22.228,23.384-37.62,18.543c11.904,10.879,13.262,29.307,2.84,41.834l-0.631,0.753
							c-10.494,12.503-28.915,14.424-41.74,4.585c7.535,14.322,2.501,32.17-11.622,40.383l-0.808,0.468
							c-14.141,8.175-32.124,3.679-40.812-9.964c2.177,16.049-8.683,31.102-24.777,33.969l-0.946,0.167
							c-16.056,2.805-31.372-7.564-34.87-23.318C247.285,441.359,234.781,451.168,220.713,451.168z M219.802,390.26
							c1.736,0,3.495,0.149,5.264,0.459l0.824,0.142c12.469,2.173,21.829,11.66,24.437,23.285
							c2.571-11.676,11.947-21.219,24.456-23.401l0.731-0.129c12.462-2.221,24.503,3.499,30.927,13.537
							c-1.579-11.829,3.94-23.986,14.914-30.329l0.668-0.388c10.954-6.369,24.242-5.121,33.722,2.118
							c-5.538-10.584-4.507-23.909,3.65-33.626l0.462-0.552c8.108-9.743,21.026-13.127,32.416-9.572
							c-8.787-8.068-12.339-20.932-7.985-32.83l0.231-0.636c4.29-11.935,15.284-19.533,27.214-20.077
							c-11.053-4.537-18.836-15.399-18.836-28.09l0.001-0.187l-0.001-0.546c-0.05-12.702,7.705-23.614,18.756-28.193
							c-11.946-0.508-22.966-8.088-27.284-20.029l-0.228-0.624c-4.388-11.902-0.852-24.788,7.937-32.875
							c-11.394,3.616-24.342,0.28-32.492-9.45l-0.464-0.551c-8.187-9.688-9.265-23.008-3.764-33.609
							c-9.475,7.275-22.778,8.548-33.753,2.182l-0.631-0.364c-10.977-6.309-16.525-18.432-14.994-30.253
							c-6.406,10.057-18.444,15.804-30.915,13.601l-0.688-0.119c-12.516-2.145-21.922-11.662-24.526-23.332
							c-2.584,11.679-11.977,21.214-24.494,23.378l-0.642,0.113c-12.487,2.242-24.562-3.489-30.989-13.558
							c1.566,11.828-3.963,23.976-14.939,30.308l-0.628,0.364c-10.965,6.389-24.278,5.137-33.767-2.126
							c5.533,10.601,4.478,23.939-3.707,33.647l-0.439,0.523c-8.119,9.738-21.04,13.109-32.432,9.538
							c8.776,8.073,12.318,20.933,7.958,32.826l-0.256,0.703c-4.314,11.892-15.283,19.45-27.179,19.995
							c11.054,4.574,18.812,15.483,18.767,28.186l0.002,0.977c0.058,12.698-7.682,23.611-18.723,28.201
							c11.925,0.496,22.94,8.039,27.285,19.948l0.253,0.69c4.392,11.894,0.869,24.776-7.907,32.868
							c11.377-3.625,24.317-0.312,32.48,9.389l0.465,0.551c8.216,9.679,9.316,23.012,3.822,33.629
							c9.476-7.29,22.793-8.571,33.777-2.2l0.555,0.32c11.012,6.287,16.596,18.422,15.074,30.264
							C199.67,395.726,209.301,390.26,219.802,390.26z"/>
					</g>
					<g>
						<path style="fill:#DB4340;" d="M223.188,434.168c-1.585,0-3.189-0.136-4.805-0.417l-0.783-0.137
							c-14.728-2.573-24.711-16.296-22.791-30.98c-7.9,12.494-24.314,16.675-37.282,9.271l-0.84-0.483
							c-12.909-7.488-17.545-23.766-10.727-36.87c-11.688,9.033-28.533,7.356-38.19-4.022l-0.581-0.688
							c-9.624-11.439-8.448-28.364,2.458-38.376c-14.1,4.527-29.391-2.826-34.57-16.85l-0.308-0.838
							c-5.127-14.055,1.79-29.566,15.488-35.225c-14.785-0.582-26.625-12.717-26.694-27.66l-0.002-0.908l0-0.438
							c0.053-14.913,11.836-27.044,26.58-27.685c-13.704-5.637-20.646-21.133-15.545-35.195l0.299-0.822
							c5.139-14.016,20.374-21.405,34.468-16.952c-10.888-9.971-12.115-26.844-2.563-38.302l0.599-0.714
							c9.625-11.417,26.477-13.146,38.197-4.134c-6.872-13.098-2.272-29.412,10.636-36.932l0.776-0.451
							c12.952-7.474,29.418-3.345,37.362,9.16c-1.975-14.664,7.939-28.418,22.645-31.061l0.949-0.167
							c14.701-2.54,28.704,6.962,31.888,21.384c3.159-14.431,17.138-23.965,31.858-21.441l0.907,0.158
							c14.717,2.598,24.673,16.327,22.738,31c7.927-12.506,24.377-16.654,37.336-9.206l0.769,0.444
							c12.918,7.493,17.552,23.789,10.714,36.898c11.707-9.029,28.567-7.323,38.206,4.084l0.58,0.689
							c9.593,11.452,8.389,28.359-2.518,38.35c14.095-4.508,29.377,2.85,34.547,16.874l0.328,0.899
							c5.082,14.055-1.859,29.528-15.545,35.163c14.781,0.595,26.607,12.737,26.666,27.676l0.001,0.719c0,0.078,0,0.156-0.001,0.234
							c-0.053,14.906-11.833,27.065-26.592,27.701c13.717,5.599,20.702,21.073,15.642,35.148l-0.32,0.884
							c-5.13,14.013-20.35,21.408-34.441,16.976c10.898,9.96,12.141,26.831,2.6,38.299l-0.578,0.689
							c-9.607,11.447-26.472,13.205-38.213,4.197c6.898,13.111,2.289,29.451-10.64,36.971l-0.74,0.429
							c-12.946,7.484-29.409,3.368-37.363-9.122c1.993,14.693-7.949,28.474-22.683,31.098l-0.866,0.153
							c-14.699,2.568-28.721-6.924-31.923-21.347C247.514,425.188,236.067,434.168,223.188,434.168z M222.354,378.407
							c1.589,0,3.199,0.137,4.819,0.42l0.754,0.13c11.415,1.989,19.984,10.674,22.372,21.318
							c2.354-10.69,10.938-19.426,22.389-21.424l0.669-0.118c11.408-2.034,22.432,3.203,28.313,12.393
							c-1.446-10.829,3.607-21.959,13.654-27.766l0.612-0.355c10.028-5.831,22.193-4.689,30.872,1.939
							c-5.07-9.69-4.126-21.889,3.341-30.784l0.423-0.506c7.423-8.92,19.249-12.018,29.677-8.763
							c-8.044-7.386-11.297-19.163-7.31-30.056l0.212-0.582c3.927-10.927,13.992-17.882,24.914-18.381
							c-10.119-4.153-17.244-14.098-17.244-25.716l0.001-0.171l-0.001-0.5c-0.046-11.628,7.054-21.618,17.171-25.811
							c-10.936-0.465-21.025-7.404-24.978-18.336l-0.208-0.571c-4.017-10.896-0.78-22.693,7.266-30.097
							c-10.431,3.31-22.285,0.256-29.746-8.651l-0.425-0.504c-7.495-8.87-8.482-21.063-3.446-30.769
							c-8.674,6.66-20.853,7.826-30.9,1.997l-0.577-0.333c-10.049-5.776-15.129-16.875-13.727-27.697
							c-5.864,9.207-16.885,14.468-28.303,12.452l-0.629-0.109c-11.458-1.963-20.069-10.676-22.454-21.36
							c-2.365,10.692-10.965,19.421-22.424,21.403l-0.587,0.103c-11.432,2.052-22.487-3.195-28.371-12.412
							c1.433,10.828-3.628,21.949-13.676,27.747l-0.575,0.333c-10.038,5.849-22.226,4.703-30.914-1.946
							c5.065,9.705,4.099,21.916-3.394,30.804l-0.402,0.479c-7.433,8.915-19.262,12.002-29.691,8.732
							c8.035,7.391,11.277,19.164,7.286,30.052l-0.234,0.644c-3.949,10.887-13.991,17.806-24.882,18.305
							c10.12,4.187,17.222,14.174,17.181,25.804l0.002,0.895c0.053,11.624-7.033,21.616-17.141,25.817
							c10.917,0.454,21.002,7.36,24.979,18.262l0.232,0.632c4.021,10.889,0.796,22.682-7.239,30.09
							c10.416-3.319,22.262-0.286,29.736,8.596l0.425,0.504c7.521,8.861,8.529,21.067,3.499,30.788
							c8.676-6.674,20.867-7.847,30.923-2.014l0.508,0.293c10.081,5.756,15.193,16.866,13.8,27.707
							C203.923,383.411,212.74,378.407,222.354,378.407z"/>
					</g>
				</g>
			</g>
			<g>
				<circle style="fill:#FFFFFF;" cx="250" cy="250" r="168.855"/>
				<g>
					<circle style="opacity:0.1;fill:#003154;" cx="257" cy="260" r="150.855"/>
					<circle style="fill:#FFFFFF;stroke:#FF8255;stroke-width:3;stroke-miterlimit:10;" cx="250" cy="250" r="150.855"/>
				</g>
			</g>
		</g>
		<g>
			<g style="opacity:0.2;">
				<path style="fill:#003154;" d="M161.378,230.801c0,0-28.372,55.765,27.719,86.746c44.351,18.588,61.309-16.306,53.156-35.546
					c-5.143-12.137-17.011-18.764-32.937-9.783l-9.783-26.415c0,0,43.868-5.297,39.46-31.307
					c-3.261-19.241-46.308-5.544-56.418,6.522l-16.632-25.763c0,0,40.112-29.676,71.092-14.349
					c30.981,15.327,27.393,53.482-5.218,71.092c0,0,24.775,7.423,35.22,34.242c12.066,30.981-1.957,76.636-56.417,71.092
					C156.16,351.788,126.484,283.957,161.378,230.801z"/>
				<path style="fill:#003154;" d="M238.341,258.846c0,0,27.393,10.109,41.09-9.783c13.697-19.893,14.675-34.894,46.96-34.894
					c37.742,0,59.753,54.876,29.35,93.92c-30.981,39.786-86.094,22.176-69.462-24.458c0,0,9.457,30.981,41.742,15.001
					c32.285-15.979,17.936-60.005,2.935-64.244c-15.001-4.24-25.437-5.87-41.742,23.154c-16.306,29.024-38.481,9.457-38.481,9.457
					L238.341,258.846z"/>
				<path style="fill:#003154;" d="M249.428,151.229c0,0,7.175,30.328,37.829,30.328c30.655,0,46.96-19.893,46.96-19.893
					l16.632,22.828c0,0-19.241,21.85-53.156,20.545C263.777,203.733,248.776,177.97,249.428,151.229z"/>
				<polygon style="fill:#003154;" points="270.626,154.816 288.888,172.426 308.128,154.164 288.562,135.576 				"/>
			</g>
			<g>
				<path style="fill:#003154;" d="M153.194,225.124c0,0-28.372,55.765,27.72,86.746c44.351,18.588,61.309-16.306,53.156-35.546
					c-5.143-12.137-17.011-18.764-32.937-9.783l-9.783-26.415c0,0,43.868-5.297,39.46-31.307
					c-3.261-19.241-46.308-5.544-56.417,6.522l-16.632-25.763c0,0,40.112-29.676,71.092-14.349s27.393,53.482-5.218,71.092
					c0,0,24.775,7.423,35.22,34.242c12.066,30.981-1.957,76.636-56.417,71.092C147.977,346.112,118.3,278.28,153.194,225.124z"/>
				<path style="fill:#003154;" d="M230.157,253.17c0,0,27.393,10.109,41.09-9.784c13.697-19.893,14.675-34.894,46.96-34.894
					c37.742,0,59.753,54.876,29.35,93.92c-30.981,39.786-86.094,22.176-69.462-24.458c0,0,9.457,30.981,41.742,15.001
					c32.285-15.979,17.936-60.005,2.935-64.244c-15.001-4.239-25.437-5.87-41.742,23.154c-16.306,29.024-38.481,9.457-38.481,9.457
					L230.157,253.17z"/>
				<path style="fill:#003154;" d="M241.245,145.553c0,0,7.174,30.328,37.829,30.328c30.654,0,46.96-19.893,46.96-19.893
					l16.632,22.828c0,0-19.241,21.85-53.156,20.545C255.594,198.057,240.592,172.294,241.245,145.553z"/>
				<polygon style="fill:#003154;" points="262.442,149.14 280.704,166.75 299.945,148.488 280.378,129.899 				"/>
			</g>
		</g>
	</g>
</g>
</svg>
